<svg width="330" height="79" viewBox="0 0 330 79" fill="none" xmlns="http://www.w3.org/2000/svg">
<path d="M24.879 0.00788879C16.2798 0.26181 8.43128 4.41035 3.87665 11.1146C1.64603 14.3959 0.38524 17.9838 0.0511858 21.9971C-0.0170619 22.8249 -0.0170619 56.277 0.0511858 57.052C0.342136 60.3497 1.17907 63.1462 2.70925 65.9558C3.97722 68.284 5.48586 70.2033 7.5261 72.0764C9.56276 73.9429 11.6533 75.3346 14.1641 76.4888C17.4148 77.9859 20.7877 78.7939 24.4803 78.9654C25.504 79.0115 304.5 79.0115 305.524 78.9654C307.895 78.8565 310.111 78.4872 312.266 77.8408C317.047 76.4096 321.239 73.7418 324.404 70.1176C327.385 66.7044 329.292 62.5031 329.835 58.1567C330.007 56.775 330 57.5598 330 39.541C330 21.8289 330.004 22.2181 329.853 21.0078C329.414 17.4232 328.172 14.1255 326.128 11.1146C322.662 6.00645 317.144 2.27013 310.837 0.763069C309.368 0.41021 308.028 0.20575 306.113 0.0441589C305.75 0.0144806 274.486 0.0045929 165.415 0.001297C88.2882 -0.00200653 25.0478 0.00128937 24.879 0.00788879ZM305.772 6.21751C306.573 6.26368 307.313 6.33293 308.089 6.43516C308.592 6.50441 308.858 6.55717 309.292 6.68579C311.221 7.25959 313.398 8.20274 315.093 9.20195C316.469 10.0165 319.163 12.5063 320.036 13.7726C321.131 15.3687 322.022 17.0934 322.672 18.8973C322.87 19.4381 322.913 19.6063 322.992 20.1174C323.114 20.9023 323.186 21.5717 323.229 22.2939C323.276 23.1151 323.276 55.7791 323.229 56.6233C323.154 57.9325 322.974 59.1757 322.776 59.7891C322.101 61.8535 320.557 64.7027 319.425 65.9723C318.193 67.3541 316.3 69.0293 315.219 69.6988C313.585 70.7046 310.905 71.8621 309.037 72.3666C308.43 72.5282 307.058 72.6931 305.664 72.7656C304.777 72.8118 25.2346 72.8118 24.3545 72.7656C22.9465 72.6898 21.5636 72.5282 20.9673 72.3666C19.0887 71.8588 16.4163 70.7046 14.7855 69.6988C13.733 69.0458 11.9371 67.4662 10.6799 66.0845C9.47655 64.7588 7.932 61.9392 7.22797 59.7891C7.03041 59.1757 6.85081 57.9325 6.77538 56.6233C6.72868 55.7791 6.72868 23.1151 6.77538 22.2939C6.81848 21.5717 6.89032 20.9023 7.01245 20.1174C7.09147 19.6063 7.13458 19.4381 7.33214 18.8973C7.98228 17.0934 8.8731 15.3687 9.96865 13.7726C10.8415 12.5063 13.5355 10.0165 14.9112 9.20195C16.5887 8.21264 18.6397 7.31895 20.5866 6.72865C21.1685 6.55058 21.366 6.50771 21.9156 6.43516C22.6376 6.33952 23.4386 6.26368 24.1426 6.22081C24.8431 6.18124 305.039 6.17793 305.772 6.21751Z" fill="#F0F0F0"/>
</svg>
